<svg class='svg-account' xmlns="http://www.w3.org/2000/svg" viewBox="0 0 100 100"><defs><style>.df6c292c-3d23-43c5-82ae-18ba30c2f45e{fill:#159a3c;}</style></defs><title>Rekam icons groen</title><path class="df6c292c-3d23-43c5-82ae-18ba30c2f45e" d="M63.55,66.2V64.64a15.15,15.15,0,0,0,1.27-1.15,23.21,23.21,0,0,0,5.86-12.91A11.36,11.36,0,0,0,78,46.21c2.46-3.47,2.68-8.47.63-14.74a1.7,1.7,0,0,0-.68-.88L77.05,30A23,23,0,0,0,71.56,14.5C67,9.37,60,6.77,50.74,6.74S34.48,9.37,29.92,14.43A23,23,0,0,0,24.43,29.9l-.93.63a1.62,1.62,0,0,0-.68.88c-2.05,6.3-1.83,11.26.63,14.74a11.46,11.46,0,0,0,7.35,4.42,23.13,23.13,0,0,0,5.88,12.92A13.87,13.87,0,0,0,38,64.64V66.2C31.46,67.46,5.56,73.54,6,90.82a1.69,1.69,0,0,0,1.69,1.69H93.8a1.7,1.7,0,0,0,1.7-1.69C95.94,73.54,70,67.46,63.55,66.2ZM29.78,46.79a7.32,7.32,0,0,1-3.59-2.63l.09,0C24.58,41.71,24.43,38,25.94,33l1.23-.83a1.71,1.71,0,0,0,.75-1.58,20,20,0,0,1,4.61-13.94c3.83-4.34,10-6.51,18.21-6.54S65.12,12.33,69,16.67a20.07,20.07,0,0,1,4.61,13.94,1.69,1.69,0,0,0,.74,1.58l1.24.83c1.51,4.93,1.4,8.69-.34,11.16a7.39,7.39,0,0,1-3.61,2.63,11.31,11.31,0,0,0,2.76-8.47,7.92,7.92,0,0,0-2.73-4.75C71,16.65,59.09,14.75,54,14.75a21.84,21.84,0,0,0-3.23.24,21.88,21.88,0,0,0-3.24-.24c-5.08,0-16.94,1.87-17.72,18.84A7.93,7.93,0,0,0,27,38.32,11.31,11.31,0,0,0,29.78,46.79ZM68.32,32.9a34.89,34.89,0,0,1-20.24-5.09,1.69,1.69,0,0,0-2.2.23c-3.39,3.64-9.58,4.48-12.56,4.67.92-12,8.17-14.59,14.27-14.59a17.43,17.43,0,0,1,2.89.24,1.56,1.56,0,0,0,.68,0,17.64,17.64,0,0,1,2.9-.24c6,0,13.33,2.68,14.18,14.76ZM33.92,47.11l.06,0A1.66,1.66,0,0,0,33.56,46c-2.32-2.66-3.39-5.08-3.1-7.08A4.52,4.52,0,0,1,32,36.05c2.24,0,10.17-.43,15.25-4.81a38.18,38.18,0,0,0,18.8,5.08,21.87,21.87,0,0,0,3.49-.19,4.48,4.48,0,0,1,1.53,2.78c.29,2-.78,4.42-3.1,7.08a1.72,1.72,0,0,0-.43,1.14V48l-9.86,5.28a4.87,4.87,0,1,0,1.53,3.54,3.38,3.38,0,0,0,0-.45L67,52.21a18.49,18.49,0,0,1-4.54,8.94,15.05,15.05,0,0,1-11.23,4.21h-.84a15.15,15.15,0,0,1-11.22-4.19C33.8,55.84,33.92,47.2,33.92,47.11Zm21.9,9.72a1.51,1.51,0,1,1-1.51-1.5A1.5,1.5,0,0,1,55.82,56.83ZM49,89H9.44c1.33-12.72,22-18,28.49-19.41v3c0,3.85,4.68,6.78,11.11,7.27ZM41.32,72.64V66.8a20.52,20.52,0,0,0,9,1.89h.85a20.53,20.53,0,0,0,9-1.89v5.84c0,1.61-3.68,3.93-9.42,3.93S41.32,74.25,41.32,72.64ZM52.43,89.07V79.89c6.44-.44,11.12-3.39,11.12-7.27v-3C70.07,71,90.65,76.33,92,89.07Z"/></svg>