<?xml version="1.0" encoding="iso-8859-1"?>
<!-- Generator: Adobe Illustrator 22.1.0, SVG Export Plug-In . SVG Version: 6.00 Build 0)  -->
<svg version="1.1" xmlns="http://www.w3.org/2000/svg" xmlns:xlink="http://www.w3.org/1999/xlink" x="0px" y="0px"
	 viewBox="0 0 100 100" style="enable-background:new 0 0 100 100;" xml:space="preserve">
<g>
	<g>
		<path style="fill:#159a3c;" d="M70.94,58.25c-1.486-1.547-3.279-2.375-5.178-2.375c-1.884,0-3.692,0.812-5.24,2.359L55.68,63.06
			c-0.398-0.214-0.797-0.414-1.18-0.613c-0.552-0.276-1.072-0.536-1.517-0.812c-4.535-2.88-8.656-6.634-12.609-11.491
			c-1.915-2.421-3.202-4.458-4.137-6.527c1.256-1.149,2.421-2.344,3.554-3.493c0.429-0.429,0.858-0.873,1.287-1.302
			c3.217-3.217,3.217-7.385,0-10.602l-4.183-4.183c-0.475-0.475-0.965-0.965-1.425-1.455c-0.919-0.95-1.884-1.93-2.88-2.85
			c-1.486-1.471-3.263-2.252-5.133-2.252c-1.869,0-3.677,0.781-5.209,2.252c-0.015,0.015-0.015,0.015-0.031,0.031l-5.209,5.255
			c-1.961,1.961-3.08,4.351-3.325,7.124c-0.368,4.474,0.95,8.641,1.961,11.368c2.482,6.695,6.19,12.9,11.721,19.55
			c6.711,8.013,14.785,14.34,24.008,18.799c3.524,1.67,8.227,3.646,13.482,3.983c0.322,0.015,0.659,0.031,0.965,0.031
			c3.539,0,6.511-1.272,8.84-3.8c0.015-0.031,0.046-0.046,0.061-0.077c0.797-0.965,1.716-1.839,2.681-2.773
			c0.659-0.628,1.333-1.287,1.992-1.976c1.517-1.578,2.313-3.417,2.313-5.301c0-1.9-0.812-3.723-2.359-5.255L70.94,58.25z
			 M76.425,74.383C76.41,74.383,76.41,74.398,76.425,74.383c-0.598,0.643-1.21,1.226-1.869,1.869
			c-0.996,0.95-2.007,1.946-2.957,3.064c-1.547,1.655-3.371,2.436-5.761,2.436c-0.23,0-0.475,0-0.705-0.015
			c-4.55-0.291-8.779-2.068-11.95-3.585c-8.672-4.198-16.286-10.158-22.614-17.711c-5.224-6.297-8.718-12.119-11.031-18.37
			c-1.425-3.815-1.946-6.787-1.716-9.591c0.153-1.793,0.843-3.279,2.114-4.55l5.224-5.224c0.751-0.705,1.547-1.088,2.329-1.088
			c0.965,0,1.747,0.582,2.237,1.072c0.015,0.015,0.031,0.031,0.046,0.046c0.935,0.873,1.823,1.777,2.758,2.742
			c0.475,0.49,0.965,0.981,1.455,1.486l4.183,4.183c1.624,1.624,1.624,3.125,0,4.749c-0.444,0.444-0.873,0.889-1.318,1.318
			c-1.287,1.318-2.513,2.543-3.846,3.738c-0.031,0.031-0.061,0.046-0.077,0.077c-1.318,1.318-1.072,2.605-0.797,3.478
			c0.015,0.046,0.031,0.092,0.046,0.138c1.088,2.635,2.62,5.117,4.949,8.074l0.015,0.015c4.229,5.209,8.687,9.269,13.605,12.379
			c0.628,0.398,1.272,0.72,1.884,1.027c0.552,0.276,1.072,0.536,1.517,0.812c0.061,0.031,0.123,0.077,0.184,0.107
			c0.521,0.26,1.011,0.383,1.517,0.383c1.272,0,2.068-0.797,2.329-1.057l5.24-5.24c0.521-0.521,1.348-1.149,2.313-1.149
			c0.95,0,1.731,0.598,2.206,1.118c0.015,0.015,0.015,0.015,0.031,0.031l8.442,8.442C77.988,71.15,77.988,72.759,76.425,74.383z"/>
		<path style="fill:#159a3c;" d="M52.8,30.549c4.014,0.674,7.66,2.574,10.571,5.485c2.911,2.911,4.795,6.557,5.485,10.571
			c0.169,1.011,1.042,1.716,2.038,1.716c0.123,0,0.23-0.015,0.352-0.031c1.134-0.184,1.884-1.256,1.701-2.39
			c-0.827-4.857-3.125-9.285-6.634-12.793s-7.936-5.807-12.793-6.634c-1.134-0.184-2.191,0.567-2.39,1.685
			C50.931,29.278,51.666,30.365,52.8,30.549z"/>
		<path style="fill:#159a3c;" d="M86.077,45.303c-1.364-7.998-5.133-15.275-10.924-21.066c-5.791-5.791-13.069-9.56-21.066-10.924
			c-1.118-0.199-2.176,0.567-2.375,1.685c-0.184,1.134,0.567,2.191,1.701,2.39c7.14,1.21,13.651,4.596,18.829,9.759
			c5.178,5.178,8.549,11.69,9.759,18.829c0.169,1.011,1.042,1.716,2.038,1.716c0.123,0,0.23-0.015,0.352-0.031
			C85.51,47.494,86.276,46.422,86.077,45.303z"/>
	</g>
</g>
</svg>
