<svg class='svg-check' xmlns="http://www.w3.org/2000/svg" viewBox="0 0 100 100"><defs><style>.\38 bfff7a9-f426-46e8-91bc-56e59f860e96{fill:#159a3c;}.\33 d93a3c1-2ee3-485b-9bc0-3a71727f2cb8{fill:#fff;}</style></defs><circle class="8bfff7a9-f426-46e8-91bc-56e59f860e96" cx="50" cy="49.63" r="37.55"/><path class="3d93a3c1-2ee3-485b-9bc0-3a71727f2cb8" d="M44.57,71.92a4.66,4.66,0,0,1-2-.43A4,4,0,0,1,41,70.18L29.63,55.12a4.17,4.17,0,0,1-.87-3.27A4.11,4.11,0,0,1,30.5,49a4.25,4.25,0,0,1,3.27-.87,4.41,4.41,0,0,1,3,1.68l7.47,9.9L63.06,29.41a4.12,4.12,0,0,1,2.74-2,4.29,4.29,0,0,1,3.36.6,4.4,4.4,0,0,1,1.43,6.1L48.31,69.87a4.28,4.28,0,0,1-1.5,1.49,3.83,3.83,0,0,1-2.05.56h-.19Z"/></svg>