<?xml version="1.0" encoding="iso-8859-1"?>
<!-- Generator: Adobe Illustrator 22.1.0, SVG Export Plug-In . SVG Version: 6.00 Build 0)  -->
<svg version="1.1" id="Laag_1" xmlns="http://www.w3.org/2000/svg" xmlns:xlink="http://www.w3.org/1999/xlink" x="0px" y="0px"
	 viewBox="0 0 100 100" style="enable-background:new 0 0 100 100;" xml:space="preserve">
<path d="M56.549,10.556c-0.833-0.156-1.615,0.065-2.344,0.664s-1.172,1.393-1.328,2.383c-0.208,0.833-0.013,1.602,0.586,2.305
	c0.599,0.703,1.393,1.159,2.383,1.367c3.073,0.313,5.964,1.12,8.672,2.422c2.708,1.354,5.104,3.073,7.188,5.156
	c2.083,2.083,3.802,4.479,5.156,7.188c1.354,2.76,2.24,5.729,2.656,8.906c0.156,0.833,0.547,1.536,1.172,2.109
	c0.625,0.573,1.354,0.859,2.188,0.859c0,0,0.052,0,0.156,0c0.104,0,0.156,0,0.156,0c0.833-0.156,1.536-0.599,2.109-1.328
	c0.573-0.729,0.859-1.51,0.859-2.344c-0.469-3.906-1.562-7.578-3.281-11.016c-1.719-3.438-3.893-6.458-6.523-9.062
	c-2.63-2.604-5.638-4.766-9.023-6.484C63.944,12.015,60.351,10.973,56.549,10.556z M65.846,40.947
	c0.156,0.833,0.547,1.484,1.172,1.953c0.625,0.469,1.354,0.703,2.188,0.703c0.156,0,0.26,0,0.312,0s0.156,0,0.312,0
	c0.833-0.156,1.536-0.612,2.109-1.367c0.573-0.755,0.755-1.628,0.547-2.617c-0.833-4.01-2.643-7.461-5.43-10.352
	s-6.185-4.674-10.195-5.352c-0.833-0.156-1.667,0-2.5,0.469s-1.328,1.198-1.484,2.188c-0.208,0.99-0.065,1.862,0.43,2.617
	c0.495,0.755,1.237,1.211,2.227,1.367c2.656,0.521,4.909,1.706,6.758,3.555C64.14,35.96,65.325,38.239,65.846,40.947z
	 M75.846,66.884v10c0,0.521-0.078,0.964-0.234,1.328s-0.417,0.703-0.781,1.016c-0.312,0.365-0.664,0.625-1.055,0.781
	c-0.391,0.156-0.924,0.234-1.602,0.234c-2.396-0.26-4.792-0.651-7.188-1.172c-2.344-0.521-4.661-1.198-6.953-2.031
	c-2.292-0.833-4.557-1.771-6.797-2.812c-2.188-1.094-4.323-2.318-6.406-3.672c-1.927-1.146-3.75-2.422-5.469-3.828
	c-1.771-1.406-3.451-2.917-5.039-4.531s-3.086-3.307-4.492-5.078c-1.406-1.771-2.734-3.62-3.984-5.547
	c-1.354-2.083-2.552-4.219-3.594-6.406c-1.094-2.188-2.044-4.427-2.852-6.719c-0.807-2.292-1.497-4.635-2.07-7.031
	c-0.521-2.344-0.911-4.74-1.172-7.188c0-0.469,0.078-0.885,0.234-1.25c0.156-0.365,0.312-0.729,0.469-1.094
	c0.313-0.312,0.703-0.612,1.172-0.898s0.964-0.43,1.484-0.43h10c0.833,0,1.549,0.299,2.148,0.898
	c0.599,0.599,1.003,1.315,1.211,2.148c0.156,1.667,0.469,3.372,0.938,5.117c0.469,1.745,1.042,3.372,1.719,4.883
	c0.156,0.677,0.169,1.328,0.039,1.953c-0.13,0.625-0.378,1.198-0.742,1.719l-4.297,3.984c-0.521,0.469-0.846,1.081-0.977,1.836
	c-0.13,0.755-0.039,1.471,0.273,2.148c1.25,2.24,2.656,4.375,4.219,6.406c1.51,2.031,3.164,3.945,4.961,5.742
	c1.797,1.797,3.711,3.477,5.742,5.039c2.031,1.51,4.167,2.891,6.406,4.141c0.677,0.365,1.393,0.508,2.148,0.43
	c0.755-0.078,1.367-0.43,1.836-1.055l4.375-4.375c0.521-0.469,1.094-0.781,1.719-0.938s1.276-0.052,1.953,0.312
	c1.667,0.625,3.333,1.133,5,1.523c1.667,0.391,3.333,0.768,5,1.133c0.677,0.156,1.289,0.534,1.836,1.133
	C75.572,65.335,75.846,66.051,75.846,66.884L75.846,66.884z M73.814,56.884c-1.458-0.156-2.93-0.404-4.414-0.742
	c-1.484-0.339-2.904-0.742-4.258-1.211c-1.823-0.677-3.672-0.794-5.547-0.352c-1.875,0.443-3.568,1.341-5.078,2.695l-2.344,2.344
	c-3.021-2.031-5.833-4.31-8.438-6.836c-2.604-2.526-4.896-5.378-6.875-8.555l2.344-2.344c1.302-1.302,2.174-2.943,2.617-4.922
	c0.443-1.979,0.352-3.88-0.273-5.703c-0.521-1.354-0.951-2.76-1.289-4.219c-0.339-1.458-0.586-2.943-0.742-4.453
	c-0.312-2.5-1.432-4.57-3.359-6.211c-1.927-1.641-4.141-2.461-6.641-2.461l0,0h-10c-0.156,0-0.326,0-0.508,0
	c-0.182,0-0.352,0-0.508,0c-1.302,0.156-2.526,0.56-3.672,1.211c-1.146,0.651-2.135,1.471-2.969,2.461
	c-0.833,0.99-1.432,2.122-1.797,3.398c-0.365,1.276-0.547,2.591-0.547,3.945c0.26,2.656,0.677,5.312,1.25,7.969
	c0.625,2.656,1.393,5.26,2.305,7.812c0.911,2.552,1.966,5.052,3.164,7.5c1.198,2.448,2.5,4.792,3.906,7.031
	c1.354,2.083,2.812,4.089,4.375,6.016c1.563,1.979,3.229,3.854,5,5.625c1.771,1.771,3.646,3.437,5.625,5
	c1.927,1.563,3.932,3.021,6.016,4.375c2.24,1.51,4.583,2.865,7.031,4.062c2.448,1.198,4.961,2.24,7.539,3.125
	s5.169,1.615,7.773,2.188c2.656,0.625,5.339,1.042,8.047,1.25c0.156,0,0.312,0,0.469,0s0.312,0,0.469,0l0,0
	c1.354,0,2.656-0.247,3.906-0.742s2.292-1.237,3.125-2.227s1.536-2.07,2.109-3.242c0.573-1.172,0.859-2.435,0.859-3.789v-10
	c0-2.5-0.82-4.701-2.461-6.602C78.385,58.382,76.314,57.249,73.814,56.884z"/>
</svg>
