<svg class='svg-contact' xmlns="http://www.w3.org/2000/svg" viewBox="0 0 100 100"><defs><style>.\30 e0a2a9c-c8d1-4077-91c5-12d949a8173e{fill:#159a3c;}</style></defs><path class="0e0a2a9c-c8d1-4077-91c5-12d949a8173e" d="M58.55,11.56a2.76,2.76,0,0,0-2.35.66,3.72,3.72,0,0,0-1.32,2.38,2.47,2.47,0,0,0,.58,2.31,4.2,4.2,0,0,0,2.39,1.37,25.68,25.68,0,0,1,8.67,2.42A27.24,27.24,0,0,1,78.86,33,28.42,28.42,0,0,1,81.52,42a3.69,3.69,0,0,0,1.17,2.11,3.13,3.13,0,0,0,2.19.86h.31a3.45,3.45,0,0,0,2.11-1.33,3.75,3.75,0,0,0,.86-2.35,33.34,33.34,0,0,0-3.28-11,34,34,0,0,0-6.53-9.06,35.51,35.51,0,0,0-9-6.49A32,32,0,0,0,58.55,11.56ZM67.85,42A3,3,0,0,0,69,43.9a3.51,3.51,0,0,0,2.18.7h.63a3.37,3.37,0,0,0,2.11-1.36,3.13,3.13,0,0,0,.55-2.62,20.76,20.76,0,0,0-5.43-10.35,17.93,17.93,0,0,0-10.2-5.35,3.64,3.64,0,0,0-2.5.46,2.88,2.88,0,0,0-1.48,2.19,3.32,3.32,0,0,0,.43,2.62,3.11,3.11,0,0,0,2.22,1.37,12.79,12.79,0,0,1,6.76,3.55A12.93,12.93,0,0,1,67.85,42Zm10,25.93v10a3.26,3.26,0,0,1-.24,1.33,2.85,2.85,0,0,1-.78,1,2.77,2.77,0,0,1-1,.78,4.43,4.43,0,0,1-1.61.23A68.79,68.79,0,0,1,67,80.07a55.79,55.79,0,0,1-7-2q-3.44-1.25-6.79-2.81a67,67,0,0,1-6.41-3.67,45.76,45.76,0,0,1-5.47-3.83,56.94,56.94,0,0,1-5-4.53,65.46,65.46,0,0,1-4.49-5.08c-1.41-1.77-2.73-3.62-4-5.55a54.87,54.87,0,0,1-3.6-6.4,59.89,59.89,0,0,1-2.85-6.72,69.31,69.31,0,0,1-2.07-7,64.92,64.92,0,0,1-1.17-7.19A3.24,3.24,0,0,1,18.39,24l.47-1.1A6,6,0,0,1,20,22a2.8,2.8,0,0,1,1.49-.43h10a3,3,0,0,1,2.15.89,4.65,4.65,0,0,1,1.21,2.15,30.9,30.9,0,0,0,.93,5.12,33.28,33.28,0,0,0,1.72,4.88,4.49,4.49,0,0,1,0,2,4.78,4.78,0,0,1-.74,1.72l-4.3,4a3.09,3.09,0,0,0-1,1.84,3.56,3.56,0,0,0,.27,2.14,52.51,52.51,0,0,0,4.22,6.41,51,51,0,0,0,5,5.74,58.63,58.63,0,0,0,5.74,5,58.46,58.46,0,0,0,6.41,4.14,3.59,3.59,0,0,0,2.15.43,2.56,2.56,0,0,0,1.83-1l4.38-4.38a4,4,0,0,1,1.72-.94,2.67,2.67,0,0,1,1.95.32,41.41,41.41,0,0,0,5,1.52c1.67.39,3.33.77,5,1.13A3.61,3.61,0,0,1,77,65.74a3.08,3.08,0,0,1,.82,2.14Zm-2-10a36.57,36.57,0,0,1-4.41-.74,41.44,41.44,0,0,1-4.26-1.21,9.37,9.37,0,0,0-5.54-.35,11.37,11.37,0,0,0-5.08,2.7l-2.35,2.34a60.29,60.29,0,0,1-8.43-6.84,44.55,44.55,0,0,1-6.88-8.55l2.34-2.35A9.72,9.72,0,0,0,43.82,38a10.38,10.38,0,0,0-.27-5.7A31.81,31.81,0,0,1,42.26,28a34.71,34.71,0,0,1-.74-4.45,9.45,9.45,0,0,0-3.36-6.21,10,10,0,0,0-6.64-2.46h-11a9.64,9.64,0,0,0-3.67,1.21,10.73,10.73,0,0,0-3,2.46,9.2,9.2,0,0,0-1.8,3.4,14.41,14.41,0,0,0-.54,3.94,68.68,68.68,0,0,0,1.25,8,71.5,71.5,0,0,0,2.3,7.81,72.27,72.27,0,0,0,3.17,7.5,75.51,75.51,0,0,0,3.9,7,70,70,0,0,0,4.38,6,63.67,63.67,0,0,0,5,5.62,62.11,62.11,0,0,0,5.62,5,68,68,0,0,0,6,4.38,58.89,58.89,0,0,0,7,4.06,66.15,66.15,0,0,0,7.54,3.13,71.49,71.49,0,0,0,7.77,2.18,51.22,51.22,0,0,0,8,1.25h.94a10.4,10.4,0,0,0,3.9-.74,7.73,7.73,0,0,0,3.13-2.22,16,16,0,0,0,2.11-3.25,8.53,8.53,0,0,0,.86-3.79v-10A9.8,9.8,0,0,0,82,61.28,9.9,9.9,0,0,0,75.81,57.88Z"/></svg>