<svg class='svg-info' xmlns="http://www.w3.org/2000/svg" viewBox="0 0 100 100"><defs><style>.f7f0e9f1-f859-4dfe-95fb-3d086fc32618{fill:#159a3c;}</style></defs><circle class="f7f0e9f1-f859-4dfe-95fb-3d086fc32618" cx="49.91" cy="71.51" r="4.36"/><path class="f7f0e9f1-f859-4dfe-95fb-3d086fc32618" d="M49.91,5.52A44.64,44.64,0,1,0,94.54,50.15,44.61,44.61,0,0,0,49.91,5.52Zm0,82.29A37.66,37.66,0,1,1,87.57,50.15,37.63,37.63,0,0,1,49.91,87.81Z"/><path class="f7f0e9f1-f859-4dfe-95fb-3d086fc32618" d="M49.91,27.92A14,14,0,0,0,36,41.87a3.49,3.49,0,1,0,7,0,7,7,0,1,1,7,7,3.49,3.49,0,0,0-3.49,3.49v8.72a3.49,3.49,0,0,0,7,0V55.38a14,14,0,0,0-3.49-27.46Z"/></svg>