<?xml version="1.0" encoding="iso-8859-1"?>
<!-- Generator: Adobe Illustrator 22.1.0, SVG Export Plug-In . SVG Version: 6.00 Build 0)  -->
<svg version="1.1" id="Laag_1" xmlns="http://www.w3.org/2000/svg" xmlns:xlink="http://www.w3.org/1999/xlink" x="0px" y="0px"
	 viewBox="0 0 100 100" style="enable-background:new 0 0 100 100;" xml:space="preserve">
<g>
	<g>
		<g>
			<circle style="fill:#020203;" cx="49.908" cy="71.51" r="4.359"/>
			<path style="fill:#020203;" d="M49.908,5.516C25.24,5.516,5.273,25.48,5.273,50.152c0,24.669,19.963,44.635,44.635,44.635
				c24.669,0,44.635-19.963,44.635-44.635C94.544,25.483,74.58,5.516,49.908,5.516z M49.908,87.813
				c-20.814,0-37.661-16.844-37.661-37.661c0-20.814,16.844-37.661,37.661-37.661c20.814,0,37.661,16.844,37.661,37.661
				C87.569,70.966,70.725,87.813,49.908,87.813z"/>
			<path style="fill:#020203;" d="M49.908,27.921c-7.691,0-13.949,6.257-13.949,13.949c0,1.926,1.561,3.487,3.487,3.487
				s3.487-1.561,3.487-3.487c0-3.846,3.129-6.974,6.974-6.974s6.974,3.129,6.974,6.974s-3.129,6.974-6.974,6.974
				c-1.926,0-3.487,1.561-3.487,3.487v8.718c0,1.926,1.561,3.487,3.487,3.487c1.926,0,3.487-1.561,3.487-3.487v-5.672
				c6.009-1.552,10.461-7.02,10.461-13.507C63.857,34.178,57.6,27.921,49.908,27.921z"/>
		</g>
	</g>
</g>
</svg>
