<?xml version="1.0" encoding="iso-8859-1"?>
<!-- Generator: Adobe Illustrator 22.1.0, SVG Export Plug-In . SVG Version: 6.00 Build 0)  -->
<svg version="1.1" id="Laag_1" xmlns="http://www.w3.org/2000/svg" xmlns:xlink="http://www.w3.org/1999/xlink" x="0px" y="0px"
	 viewBox="0 0 100 100" style="enable-background:new 0 0 100 100;" xml:space="preserve">
<g>
	<g>
		<path style="fill:#020303;" d="M51.535,90.628l4.314-1.778c2.307-0.951,3.398-3.609,2.447-5.898l-1.109-2.676
			c2.166-1.602,4.05-3.504,5.67-5.67l2.676,1.109c1.109,0.458,2.342,0.458,3.451,0c1.109-0.458,1.99-1.338,2.447-2.447l1.796-4.314
			c0.951-2.307-0.141-4.948-2.447-5.898l-3.962-1.637c-0.898-0.37-1.902,0.053-2.271,0.951s0.053,1.902,0.951,2.271l3.962,1.637
			c0.528,0.211,0.775,0.828,0.563,1.356l-1.796,4.314c-0.106,0.247-0.299,0.458-0.563,0.563c-0.247,0.106-0.528,0.106-0.792,0
			l-3.962-1.637c-0.775-0.317-1.655-0.053-2.113,0.634c-1.778,2.676-4.032,4.93-6.708,6.708c-0.687,0.458-0.968,1.356-0.651,2.113
			l1.637,3.962c0.211,0.528-0.035,1.127-0.563,1.356l-4.314,1.778c-0.247,0.106-0.528,0.106-0.792,0
			c-0.247-0.106-0.458-0.299-0.563-0.563l-1.637-3.962c-0.317-0.775-1.127-1.215-1.954-1.039c-3.134,0.634-6.339,0.616-9.473,0
			c-0.81-0.158-1.637,0.282-1.954,1.039l-1.637,3.962c-0.211,0.528-0.828,0.775-1.356,0.563l-4.314-1.796
			c-0.247-0.106-0.458-0.299-0.563-0.563c-0.106-0.247-0.106-0.528,0-0.792l1.637-3.962c0.317-0.775,0.053-1.655-0.634-2.113
			c-2.676-1.778-4.93-4.032-6.708-6.708c-0.458-0.687-1.356-0.968-2.113-0.651l-3.962,1.637c-0.264,0.106-0.528,0.106-0.792,0
			c-0.247-0.106-0.458-0.299-0.563-0.563l-1.778-4.314c-0.106-0.246-0.106-0.528,0-0.792c0.106-0.246,0.299-0.458,0.563-0.563
			l3.962-1.637c0.775-0.317,1.197-1.127,1.039-1.954c-0.634-3.134-0.616-6.339,0-9.473c0.158-0.81-0.282-1.637-1.039-1.954
			l-3.962-1.637c-0.528-0.211-0.775-0.828-0.563-1.356l1.796-4.314c0.211-0.528,0.828-0.775,1.356-0.563l3.962,1.637
			c0.775,0.317,1.655,0.053,2.113-0.634c1.778-2.676,4.032-4.93,6.708-6.708c0.687-0.458,0.968-1.356,0.651-2.113l-1.637-3.962
			c-0.106-0.247-0.106-0.528,0-0.792c0.106-0.247,0.299-0.458,0.563-0.563l4.314-1.778c0.247-0.106,0.528-0.106,0.792,0
			c0.247,0.106,0.458,0.299,0.563,0.563l1.637,3.962c0.37,0.898,1.391,1.321,2.271,0.951c0.898-0.37,1.321-1.391,0.951-2.271
			l-1.637-3.962c-0.458-1.109-1.338-1.99-2.447-2.447c-0.563-0.229-1.144-0.352-1.726-0.352c-0.581,0-1.18,0.123-1.726,0.352
			l-4.314,1.778c-1.109,0.458-1.99,1.338-2.447,2.447c-0.458,1.109-0.458,2.342,0,3.451l1.109,2.676
			c-2.166,1.602-4.05,3.504-5.67,5.67l-2.676-1.109c-2.307-0.951-4.948,0.141-5.898,2.447l-1.814,4.314
			c-0.951,2.307,0.141,4.948,2.447,5.898l2.676,1.109c-0.387,2.659-0.387,5.353,0,8.011l-2.676,1.109
			c-1.109,0.458-1.99,1.338-2.447,2.447s-0.458,2.342,0,3.451l1.778,4.314c0.458,1.109,1.338,1.99,2.447,2.447
			c1.109,0.458,2.342,0.458,3.451,0l2.676-1.109c1.602,2.166,3.504,4.05,5.67,5.67l-1.109,2.676c-0.458,1.109-0.458,2.342,0,3.451
			c0.458,1.109,1.338,1.99,2.447,2.447l4.314,1.796c2.307,0.951,4.948-0.141,5.898-2.447l1.109-2.676
			c2.659,0.387,5.353,0.387,8.011,0l1.109,2.676c0.458,1.109,1.338,1.99,2.447,2.447C49.194,91.086,50.426,91.086,51.535,90.628z"/>
		<path style="fill:#020303;" d="M26.357,58.037c0.053,7.782,6.409,14.068,14.174,14.068c0.035,0,0.07,0,0.106,0
			c3.786-0.035,7.342-1.532,10.001-4.226s4.102-6.268,4.085-10.054c0-0.951-0.792-1.726-1.743-1.726h-0.018
			c-0.968,0-1.743,0.792-1.726,1.761c0.018,2.852-1.074,5.546-3.081,7.589c-2.007,2.042-4.684,3.169-7.536,3.187
			c-0.018,0-0.053,0-0.07,0c-5.863,0-10.652-4.754-10.688-10.617c-0.035-5.898,4.719-10.723,10.617-10.776
			c0.968,0,1.743-0.792,1.726-1.761c0-0.951-0.792-1.726-1.743-1.726c0,0,0,0-0.018,0C32.608,43.81,26.304,50.219,26.357,58.037z"/>
		<path style="fill:#020303;" d="M69.953,5.479h-3.398c-2.078,0-3.768,1.69-3.768,3.768v1.743c-1.69,0.458-3.31,1.127-4.824,2.007
			l-1.233-1.233c-0.704-0.704-1.655-1.109-2.659-1.109s-1.954,0.387-2.659,1.109l-2.395,2.395c-0.704,0.704-1.109,1.655-1.109,2.659
			s0.387,1.954,1.109,2.659l1.233,1.233c-0.88,1.514-1.549,3.134-2.007,4.824H46.5c-2.078,0-3.768,1.69-3.768,3.768V32.7
			c0,2.078,1.69,3.768,3.768,3.768h1.743c0.458,1.69,1.127,3.31,2.007,4.824l-1.233,1.233c-0.704,0.704-1.109,1.655-1.109,2.659
			s0.387,1.954,1.109,2.659l2.395,2.395c0.704,0.704,1.655,1.109,2.659,1.109s1.954-0.387,2.659-1.109l1.233-1.233
			c1.514,0.88,3.134,1.549,4.824,2.007v1.743c0,2.078,1.69,3.768,3.768,3.768h3.398c2.078,0,3.768-1.69,3.768-3.768v-1.743
			c1.69-0.458,3.31-1.127,4.824-2.007l1.233,1.233c0.704,0.704,1.655,1.109,2.659,1.109s1.954-0.387,2.659-1.109l2.395-2.395
			c1.461-1.461,1.461-3.856,0-5.317l-1.233-1.233c0.88-1.514,1.549-3.134,2.007-4.824h1.743c2.078,0,3.768-1.69,3.768-3.768v-3.398
			c0-2.078-1.69-3.768-3.768-3.768h-1.743c-0.458-1.69-1.127-3.31-2.007-4.824l1.233-1.233c1.461-1.461,1.461-3.856,0-5.317
			l-2.395-2.395c-0.704-0.704-1.655-1.109-2.659-1.109s-1.954,0.387-2.659,1.109l-1.233,1.233c-1.514-0.88-3.134-1.549-4.824-2.007
			V9.247C73.703,7.169,72.013,5.479,69.953,5.479z M77.823,16.642c0.299,0.194,0.634,0.299,0.968,0.299
			c0.458,0,0.898-0.176,1.233-0.511l2.201-2.201c0.07-0.07,0.141-0.088,0.194-0.088s0.123,0.018,0.194,0.088l2.395,2.395
			c0.106,0.106,0.106,0.282,0,0.387l-2.201,2.201c-0.581,0.581-0.687,1.514-0.211,2.201c1.268,1.884,2.13,3.979,2.571,6.198
			c0.158,0.81,0.88,1.409,1.708,1.409h3.116c0.158,0,0.282,0.123,0.282,0.282V32.7c0,0.158-0.123,0.282-0.282,0.282h-3.116
			c-0.828,0-1.549,0.581-1.708,1.409c-0.44,2.219-1.303,4.314-2.571,6.198c-0.458,0.687-0.37,1.62,0.211,2.201l2.201,2.201
			c0.106,0.106,0.106,0.282,0,0.387l-2.395,2.395c-0.07,0.07-0.141,0.088-0.194,0.088s-0.123-0.018-0.194-0.088l-2.201-2.236
			c-0.581-0.581-1.514-0.687-2.201-0.211c-1.884,1.268-3.979,2.13-6.198,2.571c-0.81,0.158-1.409,0.88-1.409,1.708v3.116
			c0,0.158-0.123,0.282-0.282,0.282h-3.398c-0.158,0-0.282-0.123-0.282-0.282v-3.116c0-0.828-0.581-1.549-1.409-1.708
			c-2.219-0.44-4.314-1.303-6.198-2.571c-0.687-0.458-1.62-0.37-2.201,0.211l-2.201,2.201c-0.07,0.07-0.141,0.088-0.194,0.088
			c-0.053,0-0.123-0.018-0.194-0.088l-2.395-2.395c-0.07-0.07-0.088-0.141-0.088-0.194s0.018-0.123,0.088-0.194l2.201-2.201
			c0.581-0.581,0.687-1.514,0.211-2.201c-1.268-1.884-2.13-3.979-2.571-6.198c-0.158-0.81-0.88-1.409-1.708-1.409h-3.116
			c-0.158,0-0.282-0.123-0.282-0.282v-3.398c0-0.158,0.123-0.282,0.282-0.282h3.116c0.828,0,1.549-0.581,1.708-1.409
			c0.44-2.219,1.303-4.314,2.571-6.198c0.458-0.687,0.37-1.62-0.211-2.201l-2.201-2.201c-0.07-0.07-0.088-0.141-0.088-0.194
			s0.018-0.123,0.088-0.194l2.395-2.395c0.07-0.07,0.141-0.088,0.194-0.088c0.053,0,0.123,0.018,0.194,0.088l2.201,2.201
			c0.581,0.581,1.514,0.687,2.201,0.211c1.884-1.268,3.979-2.13,6.198-2.571c0.81-0.158,1.409-0.88,1.409-1.708V9.247
			c0-0.158,0.123-0.282,0.282-0.282h3.398c0.158,0,0.282,0.123,0.282,0.282v3.116c0,0.828,0.581,1.549,1.409,1.708
			C73.844,14.512,75.939,15.374,77.823,16.642z"/>
		<path style="fill:#020303;" d="M57.909,30.975c0,5.705,4.648,10.353,10.353,10.353s10.353-4.648,10.353-10.353
			s-4.648-10.353-10.353-10.353S57.909,25.27,57.909,30.975z M75.112,30.975c0,3.786-3.081,6.867-6.867,6.867
			s-6.867-3.081-6.867-6.867s3.081-6.867,6.867-6.867S75.112,27.207,75.112,30.975z"/>
	</g>
</g>
</svg>
