<svg id="45a5a296-8107-472b-b5f5-b263f14f9b69" data-name="Laag 1" xmlns="http://www.w3.org/2000/svg" viewBox="0 0 100 100"><defs><style>.bc3ed8cd-2d3b-4536-a97d-59b790106817{fill:#159a3c;}</style></defs><title>Rekam icons groen</title><path class="bc3ed8cd-2d3b-4536-a97d-59b790106817" d="M51.54,90.63l4.31-1.78A4.52,4.52,0,0,0,58.3,83l-1.11-2.68a27.65,27.65,0,0,0,5.67-5.66l2.67,1.1a4.52,4.52,0,0,0,5.9-2.44L73.23,69a4.52,4.52,0,0,0-2.45-5.9l-4-1.63a1.74,1.74,0,0,0-1.32,3.22l4,1.64A1,1,0,0,1,70,67.63L68.23,72a1.08,1.08,0,0,1-.57.56,1,1,0,0,1-.79,0l-4-1.64a1.74,1.74,0,0,0-2.11.64,23.92,23.92,0,0,1-6.71,6.7,1.75,1.75,0,0,0-.65,2.12l1.63,4a1,1,0,0,1-.56,1.36L50.2,87.42a1,1,0,0,1-.8,0,1.06,1.06,0,0,1-.56-.56l-1.64-4a1.7,1.7,0,0,0-2-1,24.15,24.15,0,0,1-9.47,0,1.77,1.77,0,0,0-2,1l-1.63,4a1,1,0,0,1-1.36.56l-4.31-1.79a1.06,1.06,0,0,1-.57-.57,1.08,1.08,0,0,1,0-.79l1.64-4A1.74,1.74,0,0,0,27,78.2a23.82,23.82,0,0,1-6.71-6.71,1.75,1.75,0,0,0-2.12-.65l-4,1.63a1,1,0,0,1-.79,0,1,1,0,0,1-.56-.56L11,67.6a1,1,0,0,1,0-.79,1,1,0,0,1,.56-.57l4-1.64a1.72,1.72,0,0,0,1-1.95,24.34,24.34,0,0,1,0-9.47,1.77,1.77,0,0,0-1-2l-4-1.63A1,1,0,0,1,11,48.23l1.79-4.31a1.05,1.05,0,0,1,1.36-.57l4,1.64a1.73,1.73,0,0,0,2.11-.63A24,24,0,0,1,27,37.65a1.75,1.75,0,0,0,.65-2.12l-1.63-4a1,1,0,0,1,.56-1.35l4.31-1.78a1,1,0,0,1,.8,0,1.06,1.06,0,0,1,.56.56l1.64,4a1.74,1.74,0,0,0,3.22-1.32l-1.64-4A4.53,4.53,0,0,0,33,25.23a4.43,4.43,0,0,0-3.45,0L25.23,27a4.52,4.52,0,0,0-2.45,5.9l1.11,2.68a27.45,27.45,0,0,0-5.67,5.67l-2.67-1.11a4.51,4.51,0,0,0-5.9,2.45L7.83,46.91a4.52,4.52,0,0,0,2.45,5.9L13,53.92a27.57,27.57,0,0,0,0,8L10.28,63a4.54,4.54,0,0,0-2.45,2.44,4.6,4.6,0,0,0,0,3.46l1.78,4.31a4.53,4.53,0,0,0,2.45,2.45,4.58,4.58,0,0,0,3.45,0l2.68-1.11a27.45,27.45,0,0,0,5.67,5.67l-1.11,2.67a4.48,4.48,0,0,0,0,3.45,4.54,4.54,0,0,0,2.44,2.45l4.32,1.8a4.51,4.51,0,0,0,5.9-2.45l1.11-2.68a27.57,27.57,0,0,0,8,0l1.11,2.68a4.51,4.51,0,0,0,5.9,2.45Z"/><path class="bc3ed8cd-2d3b-4536-a97d-59b790106817" d="M26.36,58A14.19,14.19,0,0,0,40.53,72.11h.11A14.19,14.19,0,0,0,54.72,57.83,1.74,1.74,0,0,0,53,56.1h0a1.72,1.72,0,0,0-1.72,1.76,10.69,10.69,0,0,1-3.09,7.59,10.58,10.58,0,0,1-7.53,3.19h-.07a10.7,10.7,0,0,1-.07-21.4,1.72,1.72,0,0,0,1.72-1.76,1.74,1.74,0,0,0-1.74-1.72h0A14.18,14.18,0,0,0,26.36,58Z"/><path class="bc3ed8cd-2d3b-4536-a97d-59b790106817" d="M70,5.48h-3.4a3.77,3.77,0,0,0-3.76,3.77V11A20.22,20.22,0,0,0,58,13l-1.23-1.24a3.77,3.77,0,0,0-2.66-1.1,3.7,3.7,0,0,0-2.66,1.1L49,14.16a3.74,3.74,0,0,0,0,5.32l1.23,1.23a20,20,0,0,0-2,4.82H46.5a3.77,3.77,0,0,0-3.77,3.77v3.4a3.77,3.77,0,0,0,3.77,3.77h1.74a20,20,0,0,0,2,4.82L49,42.52a3.75,3.75,0,0,0-1.11,2.66A3.68,3.68,0,0,0,49,47.84l2.39,2.4a3.8,3.8,0,0,0,2.66,1.11,3.7,3.7,0,0,0,2.66-1.11L58,49a20.22,20.22,0,0,0,4.83,2v1.74a3.77,3.77,0,0,0,3.76,3.77H70a3.77,3.77,0,0,0,3.77-3.77V51a20.22,20.22,0,0,0,4.83-2l1.23,1.24a3.76,3.76,0,0,0,2.66,1.11,3.67,3.67,0,0,0,2.65-1.11l2.4-2.4a3.78,3.78,0,0,0,0-5.32l-1.23-1.23a19.56,19.56,0,0,0,2-4.82H90a3.77,3.77,0,0,0,3.77-3.77V29.3A3.77,3.77,0,0,0,90,25.53H88.26a19.56,19.56,0,0,0-2-4.82l1.23-1.23a3.78,3.78,0,0,0,0-5.32l-2.4-2.4a3.75,3.75,0,0,0-2.65-1.1,3.67,3.67,0,0,0-2.66,1.1L78.55,13a20.22,20.22,0,0,0-4.83-2V9.25A3.8,3.8,0,0,0,70,5.48Zm7.87,11.16a1.76,1.76,0,0,0,1,.3A1.69,1.69,0,0,0,80,16.43l2.2-2.2a.31.31,0,0,1,.2-.09.27.27,0,0,1,.19.09L85,16.62A.29.29,0,0,1,85,17l-2.2,2.2a1.73,1.73,0,0,0-.22,2.2,17,17,0,0,1,2.58,6.2A1.74,1.74,0,0,0,86.87,29H90a.27.27,0,0,1,.28.28v3.4A.27.27,0,0,1,90,33H86.87a1.72,1.72,0,0,0-1.7,1.41,17,17,0,0,1-2.58,6.2,1.76,1.76,0,0,0,.22,2.2L85,45a.29.29,0,0,1,0,.39l-2.4,2.39a.27.27,0,0,1-.19.09.31.31,0,0,1-.2-.09L80,45.54a1.73,1.73,0,0,0-2.2-.22,17.13,17.13,0,0,1-6.19,2.58,1.74,1.74,0,0,0-1.41,1.7v3.12a.28.28,0,0,1-.28.28h-3.4a.27.27,0,0,1-.28-.28V49.6a1.73,1.73,0,0,0-1.41-1.7,17.1,17.1,0,0,1-6.2-2.58,1.75,1.75,0,0,0-2.2.22l-2.2,2.2a.26.26,0,0,1-.2.08.25.25,0,0,1-.19-.08l-2.39-2.4a.24.24,0,0,1-.09-.19.27.27,0,0,1,.09-.2l2.2-2.2a1.74,1.74,0,0,0,.21-2.2,16.93,16.93,0,0,1-2.57-6.19A1.75,1.75,0,0,0,49.6,33H46.48a.28.28,0,0,1-.28-.29V29.27a.28.28,0,0,1,.28-.29H49.6a1.74,1.74,0,0,0,1.71-1.4,16.91,16.91,0,0,1,2.57-6.2,1.75,1.75,0,0,0-.21-2.2L51.47,17a.24.24,0,0,1-.09-.2.24.24,0,0,1,.09-.19l2.39-2.4a.25.25,0,0,1,.19-.08.26.26,0,0,1,.2.08l2.2,2.21a1.74,1.74,0,0,0,2.2.21A16.91,16.91,0,0,1,64.85,14a1.75,1.75,0,0,0,1.41-1.71V9.25A.27.27,0,0,1,66.54,9h3.4a.28.28,0,0,1,.28.28v3.11a1.74,1.74,0,0,0,1.41,1.71A16.93,16.93,0,0,1,77.82,16.64Z"/><path class="bc3ed8cd-2d3b-4536-a97d-59b790106817" d="M57.91,31A10.36,10.36,0,1,0,68.26,20.62,10.37,10.37,0,0,0,57.91,31Zm17.2,0a6.87,6.87,0,1,1-6.87-6.86A6.88,6.88,0,0,1,75.11,31Z"/></svg>