<?xml version="1.0" encoding="iso-8859-1"?>
<!-- Generator: Adobe Illustrator 22.1.0, SVG Export Plug-In . SVG Version: 6.00 Build 0)  -->
<svg version="1.1" id="Laag_1" xmlns="http://www.w3.org/2000/svg" xmlns:xlink="http://www.w3.org/1999/xlink" x="0px" y="0px"
	 viewBox="0 0 100 100" style="enable-background:new 0 0 100 100;" xml:space="preserve">
<path d="M9.001,22.506h52.193c1.23-2.951,3.504-4.426,6.824-4.426s5.594,1.475,6.824,4.426h16.783v5.902H74.841
	c-1.23,2.951-3.504,4.426-6.824,4.426s-5.594-1.475-6.824-4.426H9.001V22.506z M9.001,47.588h16.783
	c1.23-2.951,3.504-4.426,6.824-4.426c3.32,0,5.594,1.475,6.824,4.426h52.193v5.902H39.431c-1.23,2.951-3.504,4.426-6.824,4.426
	c-3.32,0-5.594-1.475-6.824-4.426H9.001V47.588z M9.001,72.67h52.193c1.23-2.951,3.504-4.426,6.824-4.426s5.594,1.475,6.824,4.426
	h16.783v5.902H74.841c-1.23,2.951-3.504,4.426-6.824,4.426s-5.594-1.475-6.824-4.426H9.001V72.67z"/>
</svg>
