<svg class='svg-keuzes' xmlns="http://www.w3.org/2000/svg" viewBox="0 0 100 100"><defs><style>.\36 e5dddcb-74e0-47f9-9795-bf51b7a2d5c4{fill:#159a3c;}</style></defs><title>Rekam icons groen</title><path class="6e5dddcb-74e0-47f9-9795-bf51b7a2d5c4" d="M9,22.51H61.19A6.79,6.79,0,0,1,68,18.08a6.78,6.78,0,0,1,6.82,4.43H91.62v5.9H74.84A6.77,6.77,0,0,1,68,32.83a6.78,6.78,0,0,1-6.83-4.42H9ZM9,47.59H25.78a6.79,6.79,0,0,1,6.83-4.43,6.78,6.78,0,0,1,6.82,4.43H91.62v5.9H39.43a6.78,6.78,0,0,1-6.82,4.43,6.79,6.79,0,0,1-6.83-4.43H9ZM9,72.67H61.19A6.79,6.79,0,0,1,68,68.24a6.78,6.78,0,0,1,6.82,4.43H91.62v5.9H74.84A6.78,6.78,0,0,1,68,83a6.79,6.79,0,0,1-6.83-4.43H9Z"/></svg>