<svg class='svg-kosten' xmlns="http://www.w3.org/2000/svg" viewBox="0 0 100 100"><defs><style>.\33 90a4297-b0d6-49b3-bfa6-51cb9d624468{fill:#159a3c;}</style></defs><title>Rekam icons groen</title><path class="390a4297-b0d6-49b3-bfa6-51cb9d624468" d="M64.64,54.26a2.18,2.18,0,0,0-.59,1.61,2.38,2.38,0,1,0,2.34-2.34A2.36,2.36,0,0,0,64.64,54.26Zm-5.27,8.63v-14H82.79v14ZM29.66,25.43l41.27-6.74,1,6.74ZM17.21,30.11H78.1v14H59.37a4.75,4.75,0,0,0-4.69,4.68v14a4.75,4.75,0,0,0,4.69,4.69H78.1v14H17.21Zm65.58,14v-14a4.75,4.75,0,0,0-4.69-4.68H76.64l-1.47-9.81a2.17,2.17,0,0,0-1-1.46,2.39,2.39,0,0,0-1.83-.44L21.46,22.06a2.3,2.3,0,0,0-1.46.88,2.18,2.18,0,0,0-.44,1.75l.14.74H17.21a4.5,4.5,0,0,0-3.29,1.39,4.47,4.47,0,0,0-1.39,3.29V81.63a4.47,4.47,0,0,0,1.39,3.29,4.5,4.5,0,0,0,3.29,1.39H78.1a4.75,4.75,0,0,0,4.69-4.68v-14a4.75,4.75,0,0,0,4.68-4.69v-14a4.75,4.75,0,0,0-4.68-4.68Z"/></svg>