<?xml version="1.0" encoding="iso-8859-1"?>
<!-- Generator: Adobe Illustrator 22.1.0, SVG Export Plug-In . SVG Version: 6.00 Build 0)  -->
<svg version="1.1" id="Laag_1" xmlns="http://www.w3.org/2000/svg" xmlns:xlink="http://www.w3.org/1999/xlink" x="0px" y="0px"
	 viewBox="0 0 100 100" style="enable-background:new 0 0 100 100;" xml:space="preserve">
<path d="M64.419,55.269c-0.39,0.39-0.585,0.927-0.585,1.61s0.22,1.244,0.659,1.683c0.439,0.439,1,0.659,1.683,0.659
	s1.244-0.22,1.683-0.659c0.439-0.439,0.659-1,0.659-1.683s-0.22-1.244-0.659-1.683c-0.439-0.439-1-0.659-1.683-0.659
	S64.907,54.781,64.419,55.269z M59.15,63.905V49.854h23.418v14.051H59.15z M29.438,26.436l41.275-6.733l1.025,6.733H29.438z
	 M16.997,31.119h60.888V45.17H59.15c-1.268,0-2.366,0.463-3.293,1.39c-0.927,0.927-1.39,2.025-1.39,3.293v14.051
	c0,1.268,0.463,2.366,1.39,3.293c0.927,0.927,2.025,1.39,3.293,1.39h18.735v14.051H16.997V31.119z M82.568,45.17V31.119
	c0-1.268-0.463-2.366-1.39-3.293c-0.927-0.927-2.025-1.39-3.293-1.39h-1.464l-1.464-9.806c-0.098-0.585-0.415-1.073-0.951-1.464
	c-0.537-0.39-1.147-0.537-1.83-0.439l-50.935,8.343c-0.585,0.098-1.073,0.39-1.464,0.878c-0.39,0.488-0.537,1.073-0.439,1.756
	l0.146,0.732h-2.488c-1.268,0-2.366,0.463-3.293,1.39c-0.927,0.927-1.39,2.025-1.39,3.293v51.52c0,1.268,0.463,2.366,1.39,3.293
	c0.927,0.927,2.025,1.39,3.293,1.39h60.888c1.268,0,2.366-0.463,3.293-1.39c0.927-0.927,1.39-2.025,1.39-3.293V68.588
	c1.268,0,2.366-0.463,3.293-1.39c0.927-0.927,1.39-2.025,1.39-3.293V49.854c0-1.268-0.463-2.366-1.39-3.293
	C84.934,45.634,83.837,45.17,82.568,45.17z"/>
</svg>
