<?xml version="1.0" encoding="iso-8859-1"?>
<!-- Generator: Adobe Illustrator 22.1.0, SVG Export Plug-In . SVG Version: 6.00 Build 0)  -->
<svg version="1.1" id="Laag_1" xmlns="http://www.w3.org/2000/svg" xmlns:xlink="http://www.w3.org/1999/xlink" x="0px" y="0px"
	 viewBox="0 0 100 100" style="enable-background:new 0 0 100 100;" xml:space="preserve">
<circle style="fill:#020203;" cx="50.5" cy="49.834" r="40.489"/>
<path style="fill:#FFFFFF;" d="M55.467,28.127c0.896,0,1.342,0.447,1.342,1.342v14.412h14.772c0.894,0,1.342,0.448,1.342,1.343v9.13
	c0,0.895-0.448,1.343-1.342,1.343H56.809v14.502c0,0.895-0.446,1.342-1.342,1.342H45.71c-0.894,0-1.342-0.447-1.342-1.342V55.698
	H29.419c-0.896,0-1.342-0.448-1.342-1.343v-9.13c0-0.895,0.446-1.343,1.342-1.343h14.949V29.469c0-0.895,0.448-1.342,1.342-1.342
	H55.467z"/>
</svg>
