<svg class='svg-plus' xmlns="http://www.w3.org/2000/svg" viewBox="0 0 100 100"><defs><style>.\31 ddb3e84-39b9-4147-9057-4c1f5c35c23c{fill:#159a3c;}.\39 35d1f77-3a66-4c34-b817-b76fbcca01fa{fill:#fff;}</style></defs><circle class="1ddb3e84-39b9-4147-9057-4c1f5c35c23c" cx="50" cy="50" r="40.49"/><path class="935d1f77-3a66-4c34-b817-b76fbcca01fa" d="M55,28.29a1.19,1.19,0,0,1,1.34,1.35V44.05H71.08a1.19,1.19,0,0,1,1.34,1.34v9.13a1.18,1.18,0,0,1-1.34,1.34H56.31v14.5A1.19,1.19,0,0,1,55,71.71H45.21a1.19,1.19,0,0,1-1.34-1.35V55.86H28.92a1.18,1.18,0,0,1-1.34-1.34V45.39a1.18,1.18,0,0,1,1.34-1.34H43.87V29.64a1.19,1.19,0,0,1,1.34-1.35Z"/></svg>