<?xml version="1.0" encoding="iso-8859-1"?>
<!-- Generator: Adobe Illustrator 22.1.0, SVG Export Plug-In . SVG Version: 6.00 Build 0)  -->
<svg version="1.1" xmlns="http://www.w3.org/2000/svg" xmlns:xlink="http://www.w3.org/1999/xlink" x="0px" y="0px"
	 viewBox="0 0 100 100" style="enable-background:new 0 0 100 100;" xml:space="preserve">
<path style="fill:#159a3c;" d="M49.981,12.229c-22.283,0-40.347,18.064-40.347,40.347s18.064,40.347,40.347,40.347
	s40.347-18.064,40.347-40.347S72.263,12.229,49.981,12.229z M60.197,45.541c0,2.439-0.601,5.319-3.96,6.079
	c3.399,0.8,3.96,3.68,3.96,6.039v1.76c0,6.519-4.16,7.919-12.198,7.919c-3.119,0-5.719-0.2-7.719-0.601
	c-0.56-0.159-0.88-0.279-0.88-0.84v-3.559c0-0.36,0.2-0.48,0.6-0.48h7.519c5.319,0,6.399-0.72,6.399-3.6v-0.359
	c-0.04-2.72-0.8-3.76-4.919-3.76H41.88c-0.399,0-0.56-0.16-0.56-0.56V49.7c0-0.4,0.16-0.56,0.56-0.56h7.119
	c4.079,0,4.919-1,4.919-3.799v-0.52c0-2.839-1.28-3.399-6.559-3.399H40c-0.399,0-0.6-0.12-0.6-0.48v-3.479
	c0-0.6,0.32-0.76,0.88-0.92c2-0.36,4.6-0.6,7.719-0.6c7.959,0,12.198,1.28,12.198,7.799V45.541z"/>
</svg>
