<?xml version="1.0" encoding="iso-8859-1"?>
<!-- Generator: Adobe Illustrator 22.1.0, SVG Export Plug-In . SVG Version: 6.00 Build 0)  -->
<svg version="1.1" id="Laag_1" xmlns="http://www.w3.org/2000/svg" xmlns:xlink="http://www.w3.org/1999/xlink" x="0px" y="0px"
	 viewBox="0 0 100 100" style="enable-background:new 0 0 100 100;" xml:space="preserve">
<path style="fill:#020203;" d="M76.812,92.206H17.663c-6.6,0-12-5.4-12-12V21.057c0-6.6,5.4-12,12-12h59.149c6.6,0,12,5.4,12,12
	v59.149C88.812,86.806,83.412,92.206,76.812,92.206z"/>
<path style="fill:#FFFFFF;" d="M56.993,65.162L42.618,50.631L56.993,36.1c1.25-1.146,1.276-2.292,0.078-3.438
	c-1.198-1.146-2.37-1.146-3.516,0l-16.25,16.25c-0.521,0.417-0.781,0.99-0.781,1.719c0,0.729,0.26,1.302,0.781,1.719l16.25,16.25
	c1.146,1.146,2.318,1.146,3.516,0C58.269,67.454,58.243,66.308,56.993,65.162z"/>
</svg>
