<svg class='svg-stap-2' xmlns="http://www.w3.org/2000/svg" viewBox="0 0 100 100"><defs><style>.\39 d37fb13-a0f9-4948-9aa1-b261e61887aa{fill:#159a3c;}</style></defs><title>Rekam icons groen</title><path class="9d37fb13-a0f9-4948-9aa1-b261e61887aa" d="M50,9.65A40.35,40.35,0,1,0,90.35,50,40.36,40.36,0,0,0,50,9.65ZM60.72,64.32c0,.2-.08.24-.28.24H39.88c-.88,0-1.08-.44-1.08-1.12v-3.6c0-3.36,1.4-4.76,5.08-7.28L52.4,47C53.72,46.08,54,45,54,43.32V42c0-2.52-1.72-3.12-5.6-3.12H40.6c-.32,0-.48-.12-.48-.44V35c0-.56.24-.76.76-.88A37.5,37.5,0,0,1,49,33.37c5.88,0,11.2,1,11.2,7.28v3.63c0,2.76-.2,4.88-4,7.36L49,56.08c-1.2.68-1.6,1.2-1.6,2.24V59h13c.28,0,.32,0,.32.24Z"/></svg>