<?xml version="1.0" encoding="iso-8859-1"?>
<!-- Generator: Adobe Illustrator 22.1.0, SVG Export Plug-In . SVG Version: 6.00 Build 0)  -->
<svg version="1.1" xmlns="http://www.w3.org/2000/svg" xmlns:xlink="http://www.w3.org/1999/xlink" x="0px" y="0px"
	 viewBox="0 0 100 100" style="enable-background:new 0 0 100 100;" xml:space="preserve">
<path style="fill:#159a3c;" d="M50.654,12.229c-22.283,0-40.347,18.064-40.347,40.347s18.064,40.347,40.347,40.347
	S91,74.859,91,52.576S72.937,12.229,50.654,12.229z M59.925,66.538c0,0.399-0.2,0.6-0.6,0.6H43.327c-0.399,0-0.6-0.2-0.6-0.6
	l-0.04-4.279c0-0.4,0.2-0.601,0.64-0.601h5.079V43.221c0-1.76-0.72-2.08-2.799-2.08h-2.6c-0.44,0.04-0.681-0.16-0.681-0.6v-3.359
	c0-0.48,0.2-0.68,0.641-0.76c1.399-0.32,2.999-0.48,4.119-0.48c3.68,0,7.358,0.6,7.358,5.639v20.077h4.88c0.399,0,0.6,0.2,0.6,0.601
	V66.538z"/>
</svg>
