<svg class='svg-stap-1' xmlns="http://www.w3.org/2000/svg" viewBox="0 0 100 100"><defs><style>.eceb0da0-4ec8-4979-a5c7-44e942b3fb7f{fill:#159a3c;}</style></defs><title>Rekam icons groen</title><path class="eceb0da0-4ec8-4979-a5c7-44e942b3fb7f" d="M50,9.65A40.35,40.35,0,1,0,90.35,50,40.36,40.36,0,0,0,50,9.65ZM59.27,64a.53.53,0,0,1-.6.6h-16a.53.53,0,0,1-.6-.6l0-4.28c0-.4.2-.6.64-.6h5.08V40.65c0-1.76-.72-2.08-2.8-2.08h-2.6c-.44,0-.68-.16-.68-.6V34.61a.67.67,0,0,1,.64-.76,20.08,20.08,0,0,1,4.12-.48c3.68,0,7.36.6,7.36,5.64V59.08h4.88a.53.53,0,0,1,.6.6Z"/></svg>