<?xml version="1.0" encoding="iso-8859-1"?>
<!-- Generator: Adobe Illustrator 22.1.0, SVG Export Plug-In . SVG Version: 6.00 Build 0)  -->
<svg version="1.1" xmlns="http://www.w3.org/2000/svg" xmlns:xlink="http://www.w3.org/1999/xlink" x="0px" y="0px"
	 viewBox="0 0 100 100" style="enable-background:new 0 0 100 100;" xml:space="preserve">
<path style="fill:#159a3c;" d="M48.551,12.229c-22.283,0-40.347,18.064-40.347,40.347s18.064,40.347,40.347,40.347
	s40.347-18.064,40.347-40.347S70.833,12.229,48.551,12.229z M59.267,66.897c0,0.2-0.08,0.24-0.28,0.24H38.43
	c-0.88,0-1.079-0.439-1.079-1.12v-3.599c0-3.36,1.399-4.76,5.079-7.279l8.519-5.6c1.319-0.88,1.56-1.919,1.56-3.639v-1.36
	c0-2.52-1.72-3.12-5.6-3.12h-7.759c-0.319,0-0.479-0.12-0.479-0.44v-3.439c0-0.56,0.24-0.76,0.76-0.88
	c2.56-0.479,4.319-0.72,8.159-0.72c5.879,0,11.197,1,11.197,7.279v3.64c0,2.759-0.199,4.879-4.039,7.359l-7.158,4.439
	c-1.2,0.68-1.601,1.199-1.601,2.239v0.72h12.958c0.28,0,0.32,0.04,0.32,0.24V66.897z"/>
</svg>
