<svg class='svg-stap-3' xmlns="http://www.w3.org/2000/svg" viewBox="0 0 100 100"><defs><style>.\32 848e502-0732-44b3-bcce-e6ebc33b7474{fill:#159a3c;}</style></defs><title>Rekam icons groen</title><path class="2848e502-0732-44b3-bcce-e6ebc33b7474" d="M50,9.65A40.35,40.35,0,1,0,90.35,50,40.36,40.36,0,0,0,50,9.65ZM60.22,43c0,2.43-.6,5.31-4,6.07,3.4.8,4,3.68,4,6v1.76c0,6.52-4.16,7.92-12.2,7.92a40.8,40.8,0,0,1-7.72-.6c-.56-.16-.88-.28-.88-.84V59.76c0-.36.2-.48.6-.48h7.52c5.32,0,6.4-.72,6.4-3.6v-.36c0-2.72-.8-3.76-4.92-3.76H41.9c-.4,0-.56-.16-.56-.56V47.12c0-.4.16-.56.56-.56H49c4.08,0,4.92-1,4.92-3.8v-.52c0-2.83-1.28-3.39-6.56-3.39H40c-.4,0-.6-.12-.6-.48V34.89c0-.6.32-.76.88-.92a44.43,44.43,0,0,1,7.72-.6c8,0,12.2,1.28,12.2,7.8Z"/></svg>