<svg class='svg-tv' xmlns="http://www.w3.org/2000/svg" viewBox="0 0 100 100"><defs><style>.\32 5a40c2a-e21f-4ff6-8508-46524cd51bfe{fill:#159a3c;}</style></defs><path class="25a40c2a-e21f-4ff6-8508-46524cd51bfe" d="M86.9,15.56v-.12H13.05v.12A4.89,4.89,0,0,0,8.6,19.94V68.47a4.71,4.71,0,0,0,.65,2.43,4.53,4.53,0,0,0,4.21,2.47H40.12V80.1H35.05a2.23,2.23,0,1,0,0,4.46H64.91a2.23,2.23,0,1,0,0-4.46H59.84V73.37H86.5a4.52,4.52,0,0,0,4.21-2.47,4.86,4.86,0,0,0,.69-2.43V19.94A5,5,0,0,0,86.9,15.56Zm0,4.78V68.47c0,.29-.12.41-.4.41h-73c-.28,0-.41-.12-.41-.41V19.94H86.9v.4Z"/></svg>