<?xml version="1.0" encoding="iso-8859-1"?>
<!-- Generator: Adobe Illustrator 22.1.0, SVG Export Plug-In . SVG Version: 6.00 Build 0)  -->
<svg version="1.1" id="Laag_1" xmlns="http://www.w3.org/2000/svg" xmlns:xlink="http://www.w3.org/1999/xlink" x="0px" y="0px"
	 viewBox="0 0 100 100" style="enable-background:new 0 0 100 100;" xml:space="preserve">
<g>
	<path style="fill:#020203;" d="M86.954,15.079v-0.121h-0.405h-73.04h-0.405v0.121c-2.39,0.164-4.172,2.065-4.456,4.373v0.406
		v48.129c0,0.933,0.243,1.72,0.648,2.428c0.933,1.642,2.309,2.472,4.213,2.472h26.656v6.724H35.1c-1.256,0-2.228,0.977-2.228,2.23
		c0,1.253,0.972,2.23,2.228,2.23h29.856c1.256,0,2.269-0.977,2.269-2.23c0-1.253-1.013-2.23-2.269-2.23h-5.064v-6.724h26.655
		c1.905,0,3.294-0.83,4.213-2.472c0.417-0.743,0.689-1.538,0.689-2.428V19.858v-0.406C91.167,17.145,89.263,15.243,86.954,15.079z
		 M86.954,19.858v48.129c0,0.285-0.121,0.406-0.405,0.406h-73.04c-0.283,0-0.405-0.121-0.405-0.406V19.858v-0.406h73.85
		L86.954,19.858L86.954,19.858z"/>
</g>
</svg>
