<?xml version="1.0" encoding="iso-8859-1"?>
<!-- Generator: Adobe Illustrator 22.1.0, SVG Export Plug-In . SVG Version: 6.00 Build 0)  -->
<svg version="1.1" id="Laag_1" xmlns="http://www.w3.org/2000/svg" xmlns:xlink="http://www.w3.org/1999/xlink" x="0px" y="0px"
	 viewBox="0 0 100 100" style="enable-background:new 0 0 100 100;" xml:space="preserve">
<g>
	<g id="Attention">
		<g>
			<path style="fill:#020203;" d="M83.82,76.148L52.726,22.252c-1.076-1.862-3.089-3.118-5.392-3.118
				c-2.303,0-4.316,1.256-5.392,3.118L10.848,76.148c-0.524,0.912-0.827,1.971-0.827,3.101c0,3.433,2.786,6.219,6.219,6.219h62.189
				c3.433,0,6.219-2.786,6.219-6.219C84.648,78.12,84.347,77.061,83.82,76.148z M16.236,79.256l31.092-53.903h0.006l0.004,0.006
				l31.09,53.891L16.236,79.256z M47.334,64.739c-2.289,0-4.146,1.857-4.146,4.146c0,2.291,1.855,4.146,4.146,4.146
				s4.146-1.857,4.146-4.146C51.48,66.596,49.625,64.739,47.334,64.739z M43.188,46.082c0,0.236,0.021,0.471,0.058,0.697
				l2.042,12.09c0.168,0.98,1.02,1.725,2.046,1.725c1.026,0,1.878-0.744,2.044-1.725l2.042-12.09c0.039-0.226,0.06-0.46,0.06-0.696
				c0-2.289-1.855-4.146-4.146-4.146C45.046,41.936,43.188,43.794,43.188,46.082z"/>
		</g>
	</g>
</g>
</svg>
