<svg class='svg-waarschuwing' xmlns="http://www.w3.org/2000/svg" viewBox="0 0 100 100"><defs><style>.a500d6e8-b1bb-4ff1-a8d3-eea033bce877{fill:#159a3c;}</style></defs><g id="85b84290-0c60-4141-b983-6425040e3dda" data-name="Attention"><path class="a500d6e8-b1bb-4ff1-a8d3-eea033bce877" d="M86.49,73.85,55.39,20a6.22,6.22,0,0,0-10.78,0l-31.1,53.9a6.23,6.23,0,0,0,5.4,9.32H81.09a6.23,6.23,0,0,0,5.4-9.32ZM18.9,77,50,23.05h0L81.09,77ZM50,62.44a4.15,4.15,0,1,0,4.15,4.14A4.15,4.15,0,0,0,50,62.44ZM45.85,43.78a4,4,0,0,0,.06.7l2,12.09a2.08,2.08,0,0,0,4.09,0l2.05-12.09a4,4,0,0,0,.06-.7,4.15,4.15,0,0,0-8.3,0Z"/></g></svg>